<svg xmlns="http://www.w3.org/2000/svg" viewBox="0 0 512 512" role="img" aria-labelledby="title">
  <title id="title">Rubik Solver</title>
  <rect width="512" height="512" rx="112" fill="#111827"/>
  <circle cx="118" cy="106" r="94" fill="#38bdf8" opacity="0.24"/>
  <circle cx="402" cy="408" r="118" fill="#22c55e" opacity="0.2"/>
  <g transform="translate(116 116)">
    <rect x="0" y="0" width="280" height="280" rx="34" fill="#020617"/>
    <g stroke="#020617" stroke-width="12">
      <rect x="22" y="22" width="72" height="72" rx="13" fill="#f8fafc"/>
      <rect x="104" y="22" width="72" height="72" rx="13" fill="#ef4444"/>
      <rect x="186" y="22" width="72" height="72" rx="13" fill="#22c55e"/>
      <rect x="22" y="104" width="72" height="72" rx="13" fill="#f97316"/>
      <rect x="104" y="104" width="72" height="72" rx="13" fill="#facc15"/>
      <rect x="186" y="104" width="72" height="72" rx="13" fill="#2563eb"/>
      <rect x="22" y="186" width="72" height="72" rx="13" fill="#22c55e"/>
      <rect x="104" y="186" width="72" height="72" rx="13" fill="#f8fafc"/>
      <rect x="186" y="186" width="72" height="72" rx="13" fill="#ef4444"/>
    </g>
  </g>
</svg>
